# xmcd
#
# Track frame offsets:
#	150
#	12614
#	22202
#	32709
#	44822
#	59409
#	71039
#	83781
#	101373
#	118928
#	133678
#	146155
#	164232
#	181671
#	194204
#	205531
#	215424
#	229414
#	243353
#	254949
#	265679
#	279139
#
# Disc length: 3917 seconds
#
# Revision: 1
# Processed by: cddbd v1.5.2PL0 Copyright (c) Steve Scherf et al.
# Submitted via: audiograbber 1.83.01
#
DISCID=600f4b16
DTITLE=Freeman Daigle - Country Memories
DYEAR=1900
DGENRE=Country
TTITLE0=Let's Chase Each Other Around the Room
TTITLE1=A Little Bitty Tear
TTITLE2=Abilene
TTITLE3=Folsom Prison
TTITLE4=Good Hearted Woman
TTITLE5=Without Your Love
TTITLE6=Just Call Lonesome 77203
TTITLE7=Mansion on the Hill
TTITLE8=Paper Rosie
TTITLE9=Saginaw Michigan
TTITLE10=Take These Chains
TTITLE11=That Just About Does It
TTITLE12=Jacket River
TTITLE13=The Wild Side of Life
TTITLE14=There Goes My Everything
TTITLE15=Walk on By
TTITLE16=Walls Can Fall (feat. Tim Amick)
TTITLE17=Wolverton Mountain
TTITLE18=One More Memory
TTITLE19=Heartaches for a Dime
TTITLE20=Pride
TTITLE21=Another Day - Another Dollar
EXTD=
EXTT0=
EXTT1=
EXTT2=
EXTT3=
EXTT4=
EXTT5=
EXTT6=
EXTT7=
EXTT8=
EXTT9=
EXTT10=
EXTT11=
EXTT12=
EXTT13=
EXTT14=
EXTT15=
EXTT16=
EXTT17=
EXTT18=
EXTT19=
EXTT20=
EXTT21=
PLAYORDER=
